<svg width="22" height="18" viewBox="0 0 22 18" fill="none" xmlns="http://www.w3.org/2000/svg">
<path d="M13.6 0H2.4C1.76348 0 1.15303 0.245833 0.702944 0.683418C0.252856 1.121 0 1.71449 0 2.33333V8.55556C0 9.17439 0.252856 9.76789 0.702944 10.2055C1.15303 10.6431 1.76348 10.8889 2.4 10.8889H7.2V12.4444H4C3.78783 12.4444 3.58434 12.5264 3.43431 12.6722C3.28429 12.8181 3.2 13.0159 3.2 13.2222C3.2 13.4285 3.28429 13.6263 3.43431 13.7722C3.58434 13.9181 3.78783 14 4 14H12C12.2122 14 12.4157 13.9181 12.5657 13.7722C12.7157 13.6263 12.8 13.4285 12.8 13.2222C12.8 13.0159 12.7157 12.8181 12.5657 12.6722C12.4157 12.5264 12.2122 12.4444 12 12.4444H8.8V10.8889H13.6C14.2365 10.8889 14.847 10.6431 15.2971 10.2055C15.7471 9.76789 16 9.17439 16 8.55556V2.33333C16 1.71449 15.7471 1.121 15.2971 0.683418C14.847 0.245833 14.2365 0 13.6 0ZM14.4 8.55556C14.4 8.76184 14.3157 8.95967 14.1657 9.10553C14.0157 9.25139 13.8122 9.33333 13.6 9.33333H2.4C2.18783 9.33333 1.98434 9.25139 1.83431 9.10553C1.68429 8.95967 1.6 8.76184 1.6 8.55556V2.33333C1.6 2.12705 1.68429 1.92922 1.83431 1.78336C1.98434 1.6375 2.18783 1.55556 2.4 1.55556H13.6C13.8122 1.55556 14.0157 1.6375 14.1657 1.78336C14.3157 1.92922 14.4 2.12705 14.4 2.33333V8.55556Z" fill="#6AA0F0"/>
<path d="M11.4095 4.67649C11.1604 4.51408 10.8388 4.51426 10.5898 4.67695C10.3408 4.83963 10.2114 5.13408 10.2601 5.4275L12.1085 16.5747C12.1621 16.8977 12.419 17.1487 12.7432 17.1946C13.0674 17.2406 13.3839 17.0709 13.5251 16.7755L15.4931 12.6586L20.1762 11.9546C20.4841 11.9083 20.7313 11.6766 20.7975 11.3724C20.8637 11.0681 20.735 10.7546 20.4742 10.5846L11.4095 4.67649Z" fill="#6AA0F0" stroke="white" stroke-width="1.5" stroke-linejoin="round"/>
</svg>
