<svg width="15" height="18" viewBox="0 0 15 18" fill="none" xmlns="http://www.w3.org/2000/svg">
<path d="M9.46597 10.0748C9.77899 9.83593 10.2357 9.88434 10.4861 10.1829C10.7366 10.4815 10.6858 10.9171 10.3728 11.156L7.95929 12.9977C7.83475 13.0948 7.67573 13.1533 7.5024 13.1538L7.50005 13.1538L7.49393 13.1538C7.32356 13.1525 7.16719 13.0951 7.04404 13.0002L4.62726 11.156C4.31425 10.9171 4.2635 10.4815 4.51391 10.1829C4.76432 9.88434 5.22107 9.83593 5.53408 10.0748L6.77425 11.0211V7.84615C6.77425 7.4638 7.0992 7.15385 7.50005 7.15385C7.9009 7.15385 8.22586 7.4638 8.22586 7.84615V11.0211L9.46597 10.0748Z" fill="#6AA0F0"/>
<path fill-rule="evenodd" clip-rule="evenodd" d="M2.66129 0C1.1915 0 0 1.13651 0 2.53846V15.4615C0 16.8635 1.1915 18 2.66129 18H12.3387C13.8085 18 15 16.8635 15 15.4615V5.49037C15 5.15241 14.8889 4.82297 14.6823 4.54841L11.7663 0.67343C11.4482 0.250683 10.936 0 10.3905 0H2.66129ZM1.45161 2.53846C1.45161 1.90121 1.9932 1.38462 2.66129 1.38462H9.67742V5.44343C9.67742 5.82578 10.0024 6.13573 10.4032 6.13573H13.5484V15.4615C13.5484 16.0988 13.0068 16.6154 12.3387 16.6154H2.66129C1.9932 16.6154 1.45161 16.0988 1.45161 15.4615V2.53846Z" fill="#6AA0F0"/>
</svg>
