<svg width="13" height="10" viewBox="0 0 13 10" fill="none" xmlns="http://www.w3.org/2000/svg">
<path d="M3.58514 3.54957C3.06408 3.54957 2.64168 3.93983 2.64168 4.42125C2.64168 4.90266 3.06408 5.29293 3.58514 5.29293C4.1062 5.29293 4.5286 4.90266 4.5286 4.42125C4.5286 3.93983 4.1062 3.54957 3.58514 3.54957Z" fill="black"/>
<path d="M6.6042 3.54957C6.08315 3.54957 5.66075 3.93983 5.66075 4.42125C5.66075 4.90266 6.08315 5.29293 6.6042 5.29293C7.12526 5.29293 7.54766 4.90266 7.54766 4.42125C7.54766 3.93983 7.12526 3.54957 6.6042 3.54957Z" fill="black"/>
<path d="M8.67981 4.42125C8.67981 3.93983 9.10221 3.54957 9.62327 3.54957C10.1443 3.54957 10.5667 3.93983 10.5667 4.42125C10.5667 4.90266 10.1443 5.29293 9.62327 5.29293C9.10221 5.29293 8.67981 4.90266 8.67981 4.42125Z" fill="black"/>
<path fill-rule="evenodd" clip-rule="evenodd" d="M9.69929 0.127556C7.66581 -0.0326654 5.6217 -0.0419637 3.58661 0.0997508L3.44076 0.109907C1.50003 0.245051 0 1.73934 0 3.53751V9.47699C0 9.661 0.10466 9.83147 0.275602 9.92589C0.446543 10.0203 0.658613 10.0248 0.834045 9.93769L3.78578 8.47207C3.92308 8.4039 4.07652 8.36821 4.2324 8.36821H11.0075C11.8619 8.36821 12.5942 7.80379 12.7474 7.02712C13.0578 5.45305 13.0823 3.84221 12.8199 2.2607L12.7426 1.79465C12.6018 0.946156 11.8506 0.297058 10.9248 0.224118L9.69929 0.127556ZM3.67169 1.14281C5.64643 1.0053 7.62992 1.01432 9.60309 1.16979L10.8286 1.26635C11.2334 1.29825 11.562 1.58209 11.6235 1.95313L11.7009 2.41919C11.9442 3.8859 11.9215 5.37981 11.6336 6.83962C11.5785 7.1191 11.315 7.3222 11.0075 7.3222H4.2324C3.88948 7.3222 3.5519 7.4007 3.24984 7.55068L1.13215 8.60217V3.53751C1.13215 2.28654 2.1757 1.24698 3.52585 1.15296L3.67169 1.14281Z" fill="black"/>
</svg>
